<svg fill="none" viewBox="0 0 100% 100%" xmlns="http://www.w3.org/2000/svg">
    <g filter="url(#filter0_f_126_424)">
        <path
          d="M895.28 264.44C918.916 407.786 205 365.94 337.699 567.404M895.28 264.44C1329.53 234.072 1608.78 111.686 1723.2 343.44M895.28 264.44L995.199 496.44M337.699 567.404C891.668 492.376 1827.2 819.94 1283.8 964.911M337.699 567.404L205 879.723M1283.8 964.911C1873.7 1283.94 1886.03 837.71 1723.2 343.44M1283.8 964.911L1139.11 1247.44M1723.2 343.44L1739.61 657.297M995.199 496.44C644.899 568.46 1321.2 1086.44 205 879.723M995.199 496.44C1238.45 292.38 1446.19 370.992 1739.61 657.297M205 879.723C1066.7 1150.44 -171.39 1177.44 1139.11 1247.44M1139.11 1247.44C1144.36 629.211 1344.62 269.843 1739.61 657.297"
          stroke="white" stroke-width="10" stroke-linejoin="round" />
    </g>
    <defs>
        <filter id="filter0_f_126_424" x="0" y="0" width="2017.74" height="1452.44" filterUnits="userSpaceOnUse"
          color-interpolation-filters="sRGB">
          <feFlood flood-opacity="0" result="BackgroundImageFix" />
          <feBlend mode="normal" in="SourceGraphic" in2="BackgroundImageFix" result="shape" />
          <feGaussianBlur stdDeviation="100" result="effect1_foregroundBlur_126_424" />
        </filter>
    </defs>
</svg>